<mxfile host="app.diagrams.net" modified="2021-06-16T17:31:12.989Z" agent="5.0 (Windows NT 10.0; Win64; x64) AppleWebKit/537.36 (KHTML, like Gecko) Chrome/91.0.4472.106 Safari/537.36" etag="OWxmGBinijpNPdJolUcu" version="14.7.9" type="github">
  <diagram id="-BV-xi1rdlfvqJ2X1wtw" name="Page-1">
    <mxGraphModel dx="1865" dy="547" grid="1" gridSize="10" guides="1" tooltips="1" connect="1" arrows="1" fold="1" page="1" pageScale="1" pageWidth="827" pageHeight="1169" math="0" shadow="0">
      <root>
        <mxCell id="0" />
        <mxCell id="1" parent="0" />
        <mxCell id="Ct1cmmfti8J5BSYr-qLZ-1" value="" style="whiteSpace=wrap;html=1;shape=mxgraph.basic.roundRectCallout;dx=30;dy=15;size=5;boundedLbl=1;fontColor=#FFFFFF;strokeColor=#FFFFFF;rounded=1;sketch=1;fillColor=#804C00;" vertex="1" parent="1">
          <mxGeometry x="-420" y="1069" width="142" height="200" as="geometry" />
        </mxCell>
      </root>
    </mxGraphModel>
  </diagram>
</mxfile>
